<mxfile host="app.diagrams.net" agent="Mozilla/5.0 (Windows NT 10.0; Win64; x64) AppleWebKit/537.36 (KHTML, like Gecko) Chrome/137.0.0.0 Safari/537.36" version="27.1.6">
  <diagram name="Page-1" id="c4acf3e9-155e-7222-9cf6-157b1a14988f">
    <mxGraphModel dx="1042" dy="567" grid="1" gridSize="10" guides="1" tooltips="1" connect="1" arrows="1" fold="1" page="1" pageScale="1" pageWidth="850" pageHeight="1100" background="none" math="0" shadow="0">
      <root>
        <mxCell id="0" />
        <mxCell id="1" parent="0" />
        <mxCell id="5d2195bd80daf111-19" value="&lt;p style=&quot;margin:0px;margin-top:4px;text-align:center;&quot;&gt;&lt;i&gt;&amp;lt;&amp;lt;Interface&amp;gt;&amp;gt;&lt;/i&gt;&lt;br&gt;&lt;b&gt;AbteilungComponent&lt;/b&gt;&lt;/p&gt;&lt;hr size=&quot;1&quot;&gt;&lt;p style=&quot;margin:0px;margin-left:4px;&quot;&gt;&lt;br&gt;&lt;/p&gt;&lt;hr size=&quot;1&quot;&gt;&lt;p style=&quot;margin:0px;margin-left:4px;&quot;&gt;+printName()&lt;/p&gt;&lt;p style=&quot;margin:0px;margin-left:4px;&quot;&gt;+getName() : String&lt;/p&gt;" style="verticalAlign=top;align=left;overflow=fill;fontSize=12;fontFamily=Helvetica;html=1;rounded=0;shadow=0;comic=0;labelBackgroundColor=none;strokeWidth=1" parent="1" vertex="1">
          <mxGeometry x="300" y="50" width="190" height="110" as="geometry" />
        </mxCell>
        <mxCell id="I-9f_rI0yscwrX9286Md-6" style="edgeStyle=orthogonalEdgeStyle;rounded=0;orthogonalLoop=1;jettySize=auto;html=1;endArrow=block;endFill=0;entryX=0.325;entryY=1.02;entryDx=0;entryDy=0;entryPerimeter=0;exitX=0.5;exitY=0;exitDx=0;exitDy=0;" parent="1" edge="1" target="I-9f_rI0yscwrX9286Md-12" source="I-9f_rI0yscwrX9286Md-15">
          <mxGeometry relative="1" as="geometry">
            <mxPoint x="550" y="430" as="sourcePoint" />
            <mxPoint x="550" y="400" as="targetPoint" />
            <Array as="points">
              <mxPoint x="551" y="450" />
            </Array>
          </mxGeometry>
        </mxCell>
        <mxCell id="I-9f_rI0yscwrX9286Md-11" style="edgeStyle=orthogonalEdgeStyle;rounded=0;orthogonalLoop=1;jettySize=auto;html=1;endArrow=none;startFill=0;dashed=1;" parent="1" edge="1">
          <mxGeometry relative="1" as="geometry">
            <mxPoint x="400" y="200" as="targetPoint" />
            <mxPoint x="300" y="250" as="sourcePoint" />
            <Array as="points">
              <mxPoint x="300" y="210" />
              <mxPoint x="400" y="210" />
            </Array>
          </mxGeometry>
        </mxCell>
        <mxCell id="I-9f_rI0yscwrX9286Md-12" value="&lt;div style=&quot;font-family: Verdana; font-size: 10px; text-align: center;&quot;&gt;&amp;lt;&amp;lt;abstract&amp;gt;&amp;gt;&lt;/div&gt;&lt;p style=&quot;margin:0px;margin-top:4px;text-align:center;&quot;&gt;&lt;b style=&quot;font-family: Verdana; font-size: 10px;&quot;&gt;AbteilungComposite&lt;/b&gt;&lt;/p&gt;&lt;hr size=&quot;1&quot;&gt;&lt;p style=&quot;margin:0px;margin-left:4px;&quot;&gt;#components : List&amp;lt;AbteilungComponent&amp;gt;&lt;/p&gt;&lt;hr size=&quot;1&quot;&gt;&lt;p style=&quot;margin:0px;margin-left:4px;&quot;&gt;+printName()&lt;/p&gt;&lt;p style=&quot;margin:0px;margin-left:4px;&quot;&gt;+getName() : String&lt;/p&gt;&lt;p style=&quot;margin:0px;margin-left:4px;&quot;&gt;+addAbteilung(abteilung : AbteilungComponent)&lt;/p&gt;" style="verticalAlign=top;align=left;overflow=fill;fontSize=12;fontFamily=Helvetica;html=1;rounded=0;shadow=0;comic=0;labelBackgroundColor=none;strokeWidth=1" parent="1" vertex="1">
          <mxGeometry x="455" y="260" width="295" height="130" as="geometry" />
        </mxCell>
        <mxCell id="I-9f_rI0yscwrX9286Md-13" style="edgeStyle=orthogonalEdgeStyle;rounded=0;orthogonalLoop=1;jettySize=auto;html=1;entryX=0.541;entryY=1.034;entryDx=0;entryDy=0;entryPerimeter=0;dashed=1;endArrow=block;endFill=0;" parent="1" source="I-9f_rI0yscwrX9286Md-12" target="5d2195bd80daf111-19" edge="1">
          <mxGeometry relative="1" as="geometry" />
        </mxCell>
        <mxCell id="I-9f_rI0yscwrX9286Md-14" value="&lt;div style=&quot;font-family: Verdana; font-size: 10px; text-align: center;&quot;&gt;&lt;b style=&quot;color: light-dark(rgb(0, 0, 0), rgb(255, 255, 255)); background-color: transparent;&quot;&gt;&lt;br&gt;&lt;/b&gt;&lt;/div&gt;&lt;div style=&quot;font-family: Verdana; font-size: 10px; text-align: center;&quot;&gt;&lt;b style=&quot;color: light-dark(rgb(0, 0, 0), rgb(255, 255, 255)); background-color: transparent;&quot;&gt;Abteilung&lt;/b&gt;&lt;/div&gt;&lt;hr size=&quot;1&quot;&gt;&lt;p style=&quot;margin:0px;margin-left:4px;&quot;&gt;-name: String&lt;/p&gt;&lt;hr size=&quot;1&quot;&gt;&lt;p style=&quot;margin:0px;margin-left:4px;&quot;&gt;+printName()&lt;/p&gt;&lt;p style=&quot;margin:0px;margin-left:4px;&quot;&gt;+getName() : String&lt;/p&gt;" style="verticalAlign=top;align=left;overflow=fill;fontSize=12;fontFamily=Helvetica;html=1;rounded=0;shadow=0;comic=0;labelBackgroundColor=none;strokeWidth=1" parent="1" vertex="1">
          <mxGeometry x="210" y="250" width="180" height="100" as="geometry" />
        </mxCell>
        <mxCell id="I-9f_rI0yscwrX9286Md-15" value="&lt;div style=&quot;font-family: Verdana; font-size: 10px; text-align: center;&quot;&gt;&lt;b style=&quot;color: light-dark(rgb(0, 0, 0), rgb(255, 255, 255)); background-color: transparent;&quot;&gt;&lt;br&gt;&lt;/b&gt;&lt;/div&gt;&lt;div style=&quot;font-family: Verdana; font-size: 10px; text-align: center;&quot;&gt;&lt;b&gt;Oberabteilung&lt;/b&gt;&lt;/div&gt;&lt;hr size=&quot;1&quot;&gt;&lt;p style=&quot;margin:0px;margin-left:4px;&quot;&gt;-name: String&lt;/p&gt;&lt;hr size=&quot;1&quot;&gt;&lt;p style=&quot;margin:0px;margin-left:4px;&quot;&gt;+printName()&lt;/p&gt;&lt;p style=&quot;margin:0px;margin-left:4px;&quot;&gt;+getName() : String&lt;/p&gt;" style="verticalAlign=top;align=left;overflow=fill;fontSize=12;fontFamily=Helvetica;html=1;rounded=0;shadow=0;comic=0;labelBackgroundColor=none;strokeWidth=1" parent="1" vertex="1">
          <mxGeometry x="455" y="450" width="180" height="100" as="geometry" />
        </mxCell>
      </root>
    </mxGraphModel>
  </diagram>
</mxfile>
